<svg width="439" height="664" viewBox="0 0 439 664" fill="none" xmlns="http://www.w3.org/2000/svg">
<g filter="url(#filter0_d)">
<path d="M4 60C4 26.8629 30.8629 0 64 0H375C408.137 0 435 26.8629 435 60V596C435 629.137 408.137 656 375 656H64C30.8629 656 4 629.137 4 596V60Z" fill="#740CFE"/>
</g>
<path d="M388.2 514.15C390.233 514.15 392.1 514.617 393.8 515.55C395.467 516.483 396.817 517.917 397.85 519.85C398.883 521.783 399.4 524.183 399.4 527.05V532.35H412V540.9H376.9V527.05C376.9 524.25 377.383 521.883 378.35 519.95C379.317 518.017 380.65 516.567 382.35 515.6C384.05 514.633 386 514.15 388.2 514.15ZM392.6 527.7C392.6 526.067 392.217 524.85 391.45 524.05C390.683 523.25 389.6 522.85 388.2 522.85C386.8 522.85 385.717 523.25 384.95 524.05C384.183 524.85 383.8 526.067 383.8 527.7V532.35H392.6V527.7ZM381.2 505.399C381.2 506.899 380.767 508.132 379.9 509.099C379 510.032 377.9 510.499 376.6 510.499C375.267 510.499 374.167 510.032 373.3 509.099C372.4 508.132 371.95 506.899 371.95 505.399C371.95 503.932 372.4 502.732 373.3 501.799C374.167 500.832 375.267 500.349 376.6 500.349C377.9 500.349 379 500.832 379.9 501.799C380.767 502.732 381.2 503.932 381.2 505.399ZM384.1 501.149H412V509.699H384.1V501.149ZM398.05 496.653C395.15 496.653 392.617 496.069 390.45 494.903C388.283 493.703 386.617 492.053 385.45 489.953C384.283 487.819 383.7 485.386 383.7 482.653C383.7 479.153 384.617 476.236 386.45 473.903C388.283 471.536 390.867 469.986 394.2 469.253V478.353C392.067 479.119 391 480.603 391 482.803C391 484.369 391.617 485.619 392.85 486.553C394.05 487.486 395.783 487.953 398.05 487.953C400.317 487.953 402.067 487.486 403.3 486.553C404.5 485.619 405.1 484.369 405.1 482.803C405.1 480.603 404.033 479.119 401.9 478.353V469.253C405.167 469.986 407.733 471.536 409.6 473.903C411.467 476.269 412.4 479.186 412.4 482.653C412.4 485.386 411.817 487.819 410.65 489.953C409.483 492.053 407.817 493.703 405.65 494.903C403.483 496.069 400.95 496.653 398.05 496.653ZM404.75 449.129H412V453.479C412 456.579 411.25 458.996 409.75 460.729C408.217 462.463 405.733 463.329 402.3 463.329H391.2V466.729H384.1V463.329H377.3V454.779H384.1V449.179H391.2V454.779H402.4C403.233 454.779 403.833 454.579 404.2 454.179C404.567 453.779 404.75 453.113 404.75 452.179V449.129ZM384.1 416.817H412V425.367H408.2C409.433 426.233 410.433 427.417 411.2 428.917C411.933 430.383 412.3 432.017 412.3 433.817C412.3 435.95 411.833 437.833 410.9 439.467C409.933 441.1 408.55 442.367 406.75 443.267C404.95 444.167 402.833 444.617 400.4 444.617H384.1V436.117H399.25C401.117 436.117 402.567 435.633 403.6 434.667C404.633 433.7 405.15 432.4 405.15 430.767C405.15 429.1 404.633 427.783 403.6 426.817C402.567 425.85 401.117 425.367 399.25 425.367H384.1V416.817ZM388.75 402.125C387.217 401.125 386.017 399.875 385.15 398.375C384.25 396.875 383.8 395.209 383.8 393.375H392.85V395.725C392.85 397.859 393.317 399.459 394.25 400.525C395.15 401.592 396.75 402.125 399.05 402.125H412V410.675H384.1V402.125H388.75ZM397.6 362.989C398.4 362.989 399.233 363.039 400.1 363.139V382.489C401.833 382.355 403.167 381.805 404.1 380.839C405 379.839 405.45 378.622 405.45 377.189C405.45 375.055 404.55 373.572 402.75 372.739V363.639C404.583 364.105 406.233 364.955 407.7 366.189C409.167 367.389 410.317 368.905 411.15 370.739C411.983 372.572 412.4 374.622 412.4 376.889C412.4 379.622 411.817 382.055 410.65 384.189C409.483 386.322 407.817 387.989 405.65 389.189C403.483 390.389 400.95 390.989 398.05 390.989C395.15 390.989 392.617 390.405 390.45 389.239C388.283 388.039 386.617 386.372 385.45 384.239C384.283 382.105 383.7 379.655 383.7 376.889C383.7 374.189 384.267 371.789 385.4 369.689C386.533 367.589 388.15 365.955 390.25 364.789C392.35 363.589 394.8 362.989 397.6 362.989ZM395.35 371.739C393.883 371.739 392.717 372.239 391.85 373.239C390.983 374.239 390.55 375.489 390.55 376.989C390.55 378.422 390.967 379.639 391.8 380.639C392.633 381.605 393.817 382.205 395.35 382.439V371.739ZM383.7 337.282C383.7 335.316 384.1 333.599 384.9 332.132C385.7 330.632 386.75 329.482 388.05 328.682H384.1V320.132H411.95C414.517 320.132 416.833 320.649 418.9 321.682C421 322.682 422.667 324.232 423.9 326.332C425.133 328.399 425.75 330.982 425.75 334.082C425.75 338.216 424.767 341.566 422.8 344.132C420.867 346.699 418.233 348.166 414.9 348.532V340.082C415.967 339.816 416.8 339.182 417.4 338.182C418.033 337.182 418.35 335.949 418.35 334.482C418.35 332.716 417.833 331.316 416.8 330.282C415.8 329.216 414.183 328.682 411.95 328.682H408C409.3 329.516 410.367 330.666 411.2 332.132C412 333.599 412.4 335.316 412.4 337.282C412.4 339.582 411.817 341.666 410.65 343.532C409.45 345.399 407.767 346.882 405.6 347.982C403.4 349.049 400.867 349.582 398 349.582C395.133 349.582 392.617 349.049 390.45 347.982C388.283 346.882 386.617 345.399 385.45 343.532C384.283 341.666 383.7 339.582 383.7 337.282ZM398.05 328.682C395.917 328.682 394.233 329.282 393 330.482C391.767 331.649 391.15 333.082 391.15 334.782C391.15 336.482 391.767 337.932 393 339.132C394.2 340.299 395.867 340.882 398 340.882C400.133 340.882 401.833 340.299 403.1 339.132C404.333 337.932 404.95 336.482 404.95 334.782C404.95 333.082 404.333 331.649 403.1 330.482C401.867 329.282 400.183 328.682 398.05 328.682ZM412.4 301.247C412.4 303.98 411.817 306.447 410.65 308.647C409.483 310.814 407.817 312.53 405.65 313.797C403.483 315.03 400.95 315.647 398.05 315.647C395.183 315.647 392.667 315.014 390.5 313.747C388.3 312.48 386.617 310.747 385.45 308.547C384.283 306.347 383.7 303.88 383.7 301.147C383.7 298.414 384.283 295.947 385.45 293.747C386.617 291.547 388.3 289.814 390.5 288.547C392.667 287.28 395.183 286.647 398.05 286.647C400.917 286.647 403.45 287.297 405.65 288.597C407.817 289.864 409.483 291.614 410.65 293.847C411.817 296.047 412.4 298.514 412.4 301.247ZM405 301.247C405 299.614 404.4 298.23 403.2 297.097C402 295.93 400.283 295.347 398.05 295.347C395.817 295.347 394.1 295.914 392.9 297.047C391.7 298.147 391.1 299.514 391.1 301.147C391.1 302.814 391.7 304.197 392.9 305.297C394.067 306.397 395.783 306.947 398.05 306.947C400.283 306.947 402 306.414 403.2 305.347C404.4 304.247 405 302.88 405 301.247ZM397.6 255.811C398.4 255.811 399.233 255.861 400.1 255.961V275.311C401.833 275.178 403.167 274.628 404.1 273.661C405 272.661 405.45 271.444 405.45 270.011C405.45 267.878 404.55 266.394 402.75 265.561V256.461C404.583 256.928 406.233 257.778 407.7 259.011C409.167 260.211 410.317 261.728 411.15 263.561C411.983 265.394 412.4 267.444 412.4 269.711C412.4 272.444 411.817 274.878 410.65 277.011C409.483 279.144 407.817 280.811 405.65 282.011C403.483 283.211 400.95 283.811 398.05 283.811C395.15 283.811 392.617 283.228 390.45 282.061C388.283 280.861 386.617 279.194 385.45 277.061C384.283 274.928 383.7 272.478 383.7 269.711C383.7 267.011 384.267 264.611 385.4 262.511C386.533 260.411 388.15 258.778 390.25 257.611C392.35 256.411 394.8 255.811 397.6 255.811ZM395.35 264.561C393.883 264.561 392.717 265.061 391.85 266.061C390.983 267.061 390.55 268.311 390.55 269.811C390.55 271.244 390.967 272.461 391.8 273.461C392.633 274.428 393.817 275.028 395.35 275.261V264.561ZM412.4 239.95C412.4 242.384 411.983 244.55 411.15 246.45C410.317 248.35 409.183 249.85 407.75 250.95C406.283 252.05 404.65 252.667 402.85 252.8V244.35C403.817 244.25 404.6 243.8 405.2 243C405.8 242.2 406.1 241.217 406.1 240.05C406.1 238.984 405.9 238.167 405.5 237.6C405.067 237 404.517 236.7 403.85 236.7C403.05 236.7 402.467 237.117 402.1 237.95C401.7 238.784 401.267 240.134 400.8 242C400.333 244 399.85 245.667 399.35 247C398.817 248.334 398 249.484 396.9 250.45C395.767 251.417 394.25 251.9 392.35 251.9C390.75 251.9 389.3 251.467 388 250.6C386.667 249.7 385.617 248.4 384.85 246.7C384.083 244.967 383.7 242.917 383.7 240.55C383.7 237.05 384.567 234.3 386.3 232.3C388.033 230.267 390.333 229.1 393.2 228.8V236.7C392.233 236.834 391.467 237.267 390.9 238C390.333 238.7 390.05 239.634 390.05 240.8C390.05 241.8 390.25 242.567 390.65 243.1C391.017 243.634 391.533 243.9 392.2 243.9C393 243.9 393.6 243.484 394 242.65C394.4 241.784 394.8 240.45 395.2 238.65C395.733 236.584 396.267 234.9 396.8 233.6C397.3 232.3 398.133 231.167 399.3 230.2C400.433 229.2 401.967 228.684 403.9 228.65C405.533 228.65 407 229.117 408.3 230.05C409.567 230.95 410.567 232.267 411.3 234C412.033 235.7 412.4 237.684 412.4 239.95ZM383.8 195.674C383.8 192.474 384.867 189.907 387 187.974C389.1 186.04 392 185.074 395.7 185.074H412V193.574H396.85C394.983 193.574 393.533 194.057 392.5 195.024C391.467 195.99 390.95 197.29 390.95 198.924C390.95 200.557 391.467 201.857 392.5 202.824C393.533 203.79 394.983 204.274 396.85 204.274H412V212.824H375V204.274H387.85C386.617 203.407 385.633 202.224 384.9 200.724C384.167 199.224 383.8 197.54 383.8 195.674ZM397.6 152.832C398.4 152.832 399.233 152.882 400.1 152.982V172.332C401.833 172.199 403.167 171.649 404.1 170.682C405 169.682 405.45 168.466 405.45 167.032C405.45 164.899 404.55 163.416 402.75 162.582V153.482C404.583 153.949 406.233 154.799 407.7 156.032C409.167 157.232 410.317 158.749 411.15 160.582C411.983 162.416 412.4 164.466 412.4 166.732C412.4 169.466 411.817 171.899 410.65 174.032C409.483 176.166 407.817 177.832 405.65 179.032C403.483 180.232 400.95 180.832 398.05 180.832C395.15 180.832 392.617 180.249 390.45 179.082C388.283 177.882 386.617 176.216 385.45 174.082C384.283 171.949 383.7 169.499 383.7 166.732C383.7 164.032 384.267 161.632 385.4 159.532C386.533 157.432 388.15 155.799 390.25 154.632C392.35 153.432 394.8 152.832 397.6 152.832ZM395.35 161.582C393.883 161.582 392.717 162.082 391.85 163.082C390.983 164.082 390.55 165.332 390.55 166.832C390.55 168.266 390.967 169.482 391.8 170.482C392.633 171.449 393.817 172.049 395.35 172.282V161.582ZM388.75 139.772C387.217 138.772 386.017 137.522 385.15 136.022C384.25 134.522 383.8 132.855 383.8 131.022H392.85V133.372C392.85 135.505 393.317 137.105 394.25 138.172C395.15 139.239 396.75 139.772 399.05 139.772H412V148.322H384.1V139.772H388.75ZM397.6 100.635C398.4 100.635 399.233 100.685 400.1 100.785V120.135C401.833 120.002 403.167 119.452 404.1 118.485C405 117.485 405.45 116.268 405.45 114.835C405.45 112.702 404.55 111.218 402.75 110.385V101.285C404.583 101.752 406.233 102.602 407.7 103.835C409.167 105.035 410.317 106.552 411.15 108.385C411.983 110.218 412.4 112.268 412.4 114.535C412.4 117.268 411.817 119.702 410.65 121.835C409.483 123.968 407.817 125.635 405.65 126.835C403.483 128.035 400.95 128.635 398.05 128.635C395.15 128.635 392.617 128.052 390.45 126.885C388.283 125.685 386.617 124.018 385.45 121.885C384.283 119.752 383.7 117.302 383.7 114.535C383.7 111.835 384.267 109.435 385.4 107.335C386.533 105.235 388.15 103.602 390.25 102.435C392.35 101.235 394.8 100.635 397.6 100.635ZM395.35 109.385C393.883 109.385 392.717 109.885 391.85 110.885C390.983 111.885 390.55 113.135 390.55 114.635C390.55 116.068 390.967 117.285 391.8 118.285C392.633 119.252 393.817 119.852 395.35 120.085V109.385Z" fill="white"/>
<defs>
<filter id="filter0_d" x="0" y="0" width="439" height="664" filterUnits="userSpaceOnUse" color-interpolation-filters="sRGB">
<feFlood flood-opacity="0" result="BackgroundImageFix"/>
<feColorMatrix in="SourceAlpha" type="matrix" values="0 0 0 0 0 0 0 0 0 0 0 0 0 0 0 0 0 0 127 0"/>
<feOffset dy="4"/>
<feGaussianBlur stdDeviation="2"/>
<feColorMatrix type="matrix" values="0 0 0 0 0 0 0 0 0 0 0 0 0 0 0 0 0 0 0.25 0"/>
<feBlend mode="normal" in2="BackgroundImageFix" result="effect1_dropShadow"/>
<feBlend mode="normal" in="SourceGraphic" in2="effect1_dropShadow" result="shape"/>
</filter>
</defs>
</svg>
