<?xml version="1.0" ?><!DOCTYPE svg  PUBLIC '-//W3C//DTD SVG 1.1//EN'  'http://www.w3.org/Graphics/SVG/1.1/DTD/svg11.dtd'><svg enable-background="new 0 0 24 24" height="56px" id="Layer_1" version="1.1" viewBox="0 0 24 24" width="56px" xml:space="preserve" xmlns="http://www.w3.org/2000/svg" xmlns:xlink="http://www.w3.org/1999/xlink"><g><path d="M22.7,0.7c-0.1-0.1-0.2-0.2-0.4-0.2h-5.1c-0.2,0-0.3,0.1-0.4,0.2L9.2,14.1c-0.1,0.1-0.1,0.3,0,0.5l4.9,8.6   c0.1,0.2,0.2,0.2,0.4,0.2h5.1c0.2,0,0.3-0.1,0.4-0.2c0.1-0.1,0.1-0.3,0-0.5l-4.7-8.4l7.4-13.2C22.8,1.1,22.8,0.9,22.7,0.7z"/><path d="M10.7,9.8L7.9,4.8C7.8,4.6,7.6,4.5,7.5,4.5H2.7c-0.2,0-0.3,0.1-0.4,0.2c-0.1,0.1-0.1,0.3,0,0.5l2.7,4.8l-3.6,6.1   c-0.1,0.1-0.1,0.3,0,0.5c0.1,0.2,0.2,0.2,0.4,0.2h4.8c0.2,0,0.3-0.1,0.4-0.2l3.8-6.3C10.8,10.2,10.8,10,10.7,9.8z"/></g></svg>